<svg width="20" height="20" viewBox="0 0 20 20" fill="none" xmlns="http://www.w3.org/2000/svg">
<path d="M10.3624 11.9417L2.43119 6.89443C2.02116 6.62326 1.73402 6.20191 1.6316 5.72111C1.52919 5.24031 1.61969 4.73852 1.88362 4.3238C2.14756 3.90907 2.5638 3.61459 3.04273 3.50376C3.52166 3.39293 4.02496 3.47462 4.44425 3.73124L10.263 7.43393L15.4874 3.77674C15.8951 3.50053 16.395 3.39573 16.8792 3.48499C17.3634 3.57425 17.7931 3.85041 18.0754 4.2538C18.3577 4.6572 18.4701 5.15547 18.3881 5.64098C18.3062 6.1265 18.0365 6.56029 17.6374 6.84868L10.3624 11.9417Z" fill="#EA4435"/>
<path d="M17.1875 16.5625H14.6875L14.6875 5.3125C14.6875 4.81522 14.885 4.33831 15.2367 3.98667C15.5883 3.63504 16.0652 3.4375 16.5625 3.4375C17.0598 3.4375 17.5367 3.63504 17.8883 3.98667C18.24 4.33831 18.4375 4.81522 18.4375 5.3125V15.3125C18.4375 15.644 18.3058 15.962 18.0714 16.1964C17.837 16.4308 17.519 16.5625 17.1875 16.5625Z" fill="#00AC47"/>
<path d="M18.4101 5.04103C18.4046 5.00353 18.4051 4.96522 18.3973 4.92778C18.3853 4.8704 18.3629 4.8174 18.3458 4.76203C18.3292 4.69865 18.3092 4.6362 18.2859 4.57497C18.2734 4.54528 18.2542 4.51922 18.24 4.49034C18.2011 4.40703 18.1561 4.3267 18.1054 4.25003C18.0804 4.21372 18.0491 4.18278 18.0215 4.1484C17.9741 4.08593 17.9229 4.02646 17.8681 3.97034C17.8265 3.9299 17.7791 3.89609 17.7339 3.85965C17.6859 3.81848 17.6359 3.77974 17.5839 3.74359C17.5344 3.71122 17.4801 3.68628 17.4277 3.65865C17.3724 3.62984 17.3183 3.59847 17.2608 3.57547C17.2053 3.55309 17.146 3.53884 17.0879 3.52178C17.0299 3.50472 16.9721 3.48428 16.9125 3.47322C16.8386 3.46135 16.7641 3.45384 16.6894 3.45072C16.6419 3.4474 16.5949 3.43909 16.5473 3.43947C16.4589 3.44204 16.3708 3.45092 16.2836 3.46603C16.2484 3.47128 16.213 3.47084 16.1781 3.47809C16.0601 3.51412 15.9425 3.55121 15.8253 3.58934C15.7931 3.60309 15.7649 3.62353 15.7337 3.63903C15.4163 3.78713 15.1486 4.02398 14.963 4.32096C14.7773 4.61794 14.6816 4.96234 14.6875 5.31253V8.91378L17.6375 6.84859C17.9272 6.65417 18.1543 6.37996 18.2914 6.05914C18.4285 5.73831 18.4699 5.38476 18.4101 5.04103Z" fill="#FFBA00"/>
<path d="M3.4375 3.4375C3.93478 3.4375 4.41169 3.63504 4.76333 3.98667C5.11496 4.33831 5.3125 4.81522 5.3125 5.3125V16.5625H2.8125C2.48098 16.5625 2.16304 16.4308 1.92862 16.1964C1.6942 15.962 1.5625 15.644 1.5625 15.3125V5.3125C1.5625 4.81522 1.76004 4.33831 2.11167 3.98667C2.46331 3.63504 2.94022 3.4375 3.4375 3.4375Z" fill="#4285F4"/>
<path d="M1.58992 5.04098C1.59542 5.00348 1.59498 4.96516 1.60279 4.92773C1.61479 4.87035 1.6371 4.81735 1.65423 4.76198C1.67083 4.69862 1.69082 4.6362 1.7141 4.57498C1.7266 4.54529 1.74585 4.51923 1.7601 4.49035C1.79897 4.407 1.84397 4.32666 1.89473 4.24998C1.91973 4.21366 1.95098 4.18273 1.9786 4.14835C2.02599 4.08588 2.07721 4.02641 2.13198 3.97029C2.17354 3.92985 2.22092 3.89604 2.26617 3.8596C2.31418 3.81841 2.36424 3.77967 2.41617 3.74354C2.46573 3.71116 2.51998 3.68623 2.57242 3.6586C2.62661 3.62795 2.6823 3.60004 2.73929 3.57498C2.79492 3.5526 2.85417 3.53835 2.91217 3.52129C2.97017 3.50423 3.02798 3.48379 3.0876 3.47273C3.16147 3.46086 3.23598 3.45335 3.31073 3.45023C3.35823 3.44691 3.40517 3.4386 3.45279 3.43898C3.54121 3.44155 3.62933 3.45043 3.71648 3.46554C3.75167 3.47079 3.7871 3.47035 3.8221 3.4776C3.8826 3.49302 3.94227 3.51154 4.00085 3.5331C4.05977 3.54876 4.11787 3.56737 4.17492 3.58885C4.20704 3.6026 4.23523 3.62304 4.26648 3.63854C4.3475 3.6766 4.42566 3.72047 4.50035 3.76979C4.75075 3.94172 4.95554 4.17201 5.09703 4.44079C5.23852 4.70956 5.31247 5.00874 5.31248 5.31248V8.91373L2.36248 6.84866C2.07284 6.65419 1.84574 6.37997 1.70864 6.05917C1.57153 5.73837 1.5303 5.38472 1.58992 5.04098Z" fill="#C52528"/>
</svg>
