<svg width="20" height="20" viewBox="0 0 20 20" fill="none" xmlns="http://www.w3.org/2000/svg">
<g clip-path="url(#clip0_28_2186)">
<mask id="mask0_28_2186" style="mask-type:luminance" maskUnits="userSpaceOnUse" x="0" y="0" width="20" height="20">
<path d="M0.0187988 20V0.0124512H20V20H0.0187988Z" fill="#76ABC4"/>
</mask>
<g mask="url(#mask0_28_2186)">
<path fill-rule="evenodd" clip-rule="evenodd" d="M20 10C20 15.5228 15.5228 20 10 20C4.47719 20 0 15.5228 0 10C0 4.47719 4.47719 0 10 0C15.5228 0 20 4.47719 20 10Z" fill="#76ABC4"/>
</g>
<path fill-rule="evenodd" clip-rule="evenodd" d="M13.4907 15.6249C13.4551 15.6253 13.4196 15.6198 13.3857 15.6087C13.3145 15.5853 13.2214 15.5603 13.1079 15.5287C11.6379 15.1218 7.16542 13.884 5.01323 7.20714C4.99404 7.14757 4.99176 7.08385 5.00667 7.02307C5.01761 6.97932 5.28886 5.92932 7.09323 5.62995C7.16053 5.61821 7.22982 5.62748 7.29167 5.65651C7.35761 5.68651 8.92042 6.42151 9.05073 7.91964C9.05979 8.01526 9.02698 8.11057 8.96229 8.18089C8.45011 8.73589 8.00479 9.41839 8.02854 9.61276C8.06948 9.95839 9.15448 11.7812 11.0973 12.7312C11.387 12.6853 12.0585 12.2428 12.5448 11.8274C12.6056 11.7749 12.6832 11.7457 12.7635 11.7453C12.791 11.7453 12.8189 11.7487 12.846 11.7559C14.3873 12.1296 14.9429 13.1871 14.966 13.2321C14.9989 13.2962 15.0104 13.3699 14.9989 13.4409C14.7392 15.0734 13.6767 15.5737 13.6317 15.5943C13.5874 15.6145 13.5394 15.6249 13.4907 15.6249Z" fill="#638DA0"/>
<path fill-rule="evenodd" clip-rule="evenodd" d="M9.05073 7.29465C8.92042 5.79652 7.3576 5.06152 7.29167 5.03152C7.22983 5.00247 7.16053 4.9932 7.09323 5.00496C5.28885 5.30434 5.0176 6.35434 5.00667 6.39809C4.99167 6.45934 4.99417 6.52277 5.01323 6.58215C7.16542 13.259 11.6379 14.4968 13.1079 14.9037C13.2214 14.9353 13.3145 14.9603 13.3857 14.9837C13.4666 15.0099 13.5544 15.0047 13.6317 14.9693C13.6767 14.9487 14.7392 14.4484 14.9989 12.8159C15.0104 12.745 14.9989 12.6712 14.966 12.6071C14.9429 12.5621 14.3873 11.5046 12.846 11.1309C12.7938 11.1175 12.7391 11.1171 12.6866 11.1296C12.6341 11.142 12.5855 11.167 12.5448 11.2025C12.0585 11.6178 11.387 12.0603 11.0973 12.1059C9.15448 11.1562 8.06948 9.3334 8.02854 8.98777C8.00479 8.7934 8.4501 8.1109 8.96229 7.5559C9.02698 7.48559 9.05979 7.39027 9.05073 7.29465Z" fill="#FFFFFE"/>
</g>
<defs>
<clipPath id="clip0_28_2186">
<rect width="20" height="20" fill="white"/>
</clipPath>
</defs>
</svg>
