<svg width="20" height="20" viewBox="0 0 20 20" fill="none" xmlns="http://www.w3.org/2000/svg">
<g clip-path="url(#clip0_28_2196)">
<path fill-rule="evenodd" clip-rule="evenodd" d="M9.9971 0C4.48459 0 1.13725e-05 4.48542 1.13725e-05 10C-0.00317598 12.1063 0.663695 14.159 1.90418 15.8613L0.658345 19.5767L4.50168 18.3483C6.13245 19.4293 8.04643 20.0039 10.0029 20C15.5154 20 20 15.5142 20 10C20 4.48583 15.5158 0 10.0029 0H9.9971ZM7.20543 5.07917C7.01126 4.615 6.8646 4.5975 6.57085 4.58542C6.45931 4.57835 6.3476 4.5746 6.23585 4.57417C5.85334 4.57417 5.45376 4.68583 5.21293 4.9325C4.91918 5.2325 4.19043 5.93167 4.19043 7.36625C4.19043 8.80083 5.23626 10.1883 5.37751 10.3825C5.5246 10.5763 7.4171 13.5625 10.3554 14.7796C12.6533 15.7321 13.3354 15.6438 13.8583 15.5321C14.6225 15.3675 15.5804 14.8029 15.8213 14.1213C16.0625 13.4392 16.0625 12.8571 15.9921 12.7338C15.9213 12.6104 15.7271 12.54 15.4338 12.3929C15.1396 12.2458 13.7113 11.5404 13.4408 11.4463C13.1767 11.3463 12.9242 11.3817 12.7242 11.6638C12.4421 12.0579 12.1658 12.4575 11.9425 12.6983C11.7663 12.8867 11.4779 12.9104 11.2371 12.81C10.9138 12.675 10.0088 12.3575 8.89209 11.3642C8.02793 10.5938 7.44043 9.63583 7.27001 9.3475C7.09918 9.05375 7.25251 8.88333 7.38751 8.72458C7.53459 8.54208 7.67543 8.41292 7.82251 8.2425C7.96918 8.07167 8.05168 7.98375 8.14584 7.78417C8.24584 7.59 8.17501 7.39 8.10418 7.2425C8.03418 7.09583 7.44626 5.66125 7.20543 5.07958V5.07917Z" fill="#67C15E"/>
</g>
<defs>
<clipPath id="clip0_28_2196">
<rect width="20" height="20" fill="white"/>
</clipPath>
</defs>
</svg>
